HIERARCHY
ROOT reference
{
  OFFSET 0 0 0
  CHANNELS 6 Xposition Yposition Zposition Zrotation Xrotation Yrotation
  JOINT Hips
  {
    OFFSET 44.6805 85.9651 -20.1189
    CHANNELS 3 Zrotation Xrotation Yrotation
    JOINT RightUpLeg
    {
      OFFSET -9.20028 -1.61905 0.0313892
      CHANNELS 3 Zrotation Xrotation Yrotation
      JOINT RightLeg
      {
        OFFSET 0.0920446 -41.8676 0.113709
        CHANNELS 3 Zrotation Xrotation Yrotation
        JOINT RightFoot
        {
          OFFSET -0.78009 -42.2818 -0.985537
          CHANNELS 3 Zrotation Xrotation Yrotation
          End Site
          {
            OFFSET 0 -7.69 17.5
          }
        }
      }
    }
    JOINT LeftUpLeg
    {
      OFFSET 9.33559 -1.63058 -0.0435578
      CHANNELS 3 Zrotation Xrotation Yrotation
      JOINT LeftLeg
      {
        OFFSET 0.124601 -41.8685 -0.0153308
        CHANNELS 3 Zrotation Xrotation Yrotation
        JOINT LeftFoot
        {
          OFFSET -0.885525 -42.178 -0.480441
          CHANNELS 3 Zrotation Xrotation Yrotation
          End Site
          {
            OFFSET 0 -7.69 17.5
          }
        }
      }
    }
    JOINT Spine
    {
      OFFSET -0.030151 14.2977 0.0632059
      CHANNELS 3 Zrotation Xrotation Yrotation
      JOINT Spine1
      {
        OFFSET -0.0449239 9.71163 -4.69081e-05
        CHANNELS 3 Zrotation Xrotation Yrotation
        JOINT Spine2
        {
          OFFSET 0.0275009 10.1133 -0.0283136
          CHANNELS 3 Zrotation Xrotation Yrotation
          JOINT Spine3
          {
            OFFSET 0.0288761 9.7229 -0.000806902
            CHANNELS 3 Zrotation Xrotation Yrotation
            JOINT Neck
            {
              OFFSET -0.0518603 10.2949 0.241895
              CHANNELS 3 Zrotation Xrotation Yrotation
              JOINT Head
              {
                OFFSET -0.275401 9.55953 0.0709142
                CHANNELS 3 Zrotation Xrotation Yrotation
                End Site
                {
                  OFFSET 0 15.95 0
                }
              }
            }
            JOINT RightShoulder
            {
              OFFSET -3.17286 6.95881 0.00543218
              CHANNELS 3 Zrotation Xrotation Yrotation
              JOINT RightArm
              {
                OFFSET -12.7612 0.039846 0.0411956
                CHANNELS 3 Zrotation Xrotation Yrotation
                JOINT RightForeArm
                {
                  OFFSET -26.5517 0.0729849 0.08211
                  CHANNELS 3 Zrotation Xrotation Yrotation
                  JOINT RightHand
                  {
                    OFFSET -26.0042 -0.0197864 0.0403594
                    CHANNELS 3 Zrotation Xrotation Yrotation
                    JOINT RightHandThumb1
                    {
                      OFFSET -2.48905 0.190105 3.12053
                      CHANNELS 3 Zrotation Xrotation Yrotation
                      JOINT RightHandThumb2
                      {
                        OFFSET -3.68274 0 0
                        CHANNELS 3 Zrotation Xrotation Yrotation
                        JOINT RightHandThumb3
                        {
                          OFFSET -2.55832 0 0
                          CHANNELS 3 Zrotation Xrotation Yrotation
                          End Site
                          {
                            OFFSET -2.194 0 0
                          }
                        }
                      }
                    }
                    JOINT RightInHandIndex
                    {
                      OFFSET -3.22368 0.508421 1.97842
                      CHANNELS 3 Zrotation Xrotation Yrotation
                      JOINT RightHandIndex1
                      {
                        OFFSET -5.21684 -0.091368 0.999158
                        CHANNELS 3 Zrotation Xrotation Yrotation
                        JOINT RightHandIndex2
                        {
                          OFFSET -3.61937 0 0
                          CHANNELS 3 Zrotation Xrotation Yrotation
                          JOINT RightHandIndex3
                          {
                            OFFSET -2.0521 0 0
                            CHANNELS 3 Zrotation Xrotation Yrotation
                            End Site
                            {
                              OFFSET -1.805 0 0
                            }
                          }
                        }
                      }
                    }
                    JOINT RightInHandMiddle
                    {
                      OFFSET -3.38211 0.517263 0.756737
                      CHANNELS 3 Zrotation Xrotation Yrotation
                      JOINT RightHandMiddle1
                      {
                        OFFSET -5.17411 -0.084 0.313895
                        CHANNELS 3 Zrotation Xrotation Yrotation
                        JOINT RightHandMiddle2
                        {
                          OFFSET -3.94947 0 0
                          CHANNELS 3 Zrotation Xrotation Yrotation
                          JOINT RightHandMiddle3
                          {
                            OFFSET -2.47579 0 0
                            CHANNELS 3 Zrotation Xrotation Yrotation
                            End Site
                            {
                              OFFSET -1.975 0 0
                            }
                          }
                        }
                      }
                    }
                    JOINT RightInHandRing
                    {
                      OFFSET -3.36516 0.537895 -0.128947
                      CHANNELS 3 Zrotation Xrotation Yrotation
                      JOINT RightHandRing1
                      {
                        OFFSET -4.63474 -0.022105 -0.478947
                        CHANNELS 3 Zrotation Xrotation Yrotation
                        JOINT RightHandRing2
                        {
                          OFFSET -3.44238 0 0
                          CHANNELS 3 Zrotation Xrotation Yrotation
                          JOINT RightHandRing3
                          {
                            OFFSET -2.3881 0 0
                            CHANNELS 3 Zrotation Xrotation Yrotation
                            End Site
                            {
                              OFFSET -1.857 0 0
                            }
                          }
                        }
                      }
                    }
                    JOINT RightInHandPinky
                    {
                      OFFSET -3.16105 0.469368 -1.20179
                      CHANNELS 3 Zrotation Xrotation Yrotation
                      JOINT RightHandPinky1
                      {
                        OFFSET -4.14105 -0.022105 -1.09053
                        CHANNELS 3 Zrotation Xrotation Yrotation
                        JOINT RightHandPinky2
                        {
                          OFFSET -2.75653 0 0
                          CHANNELS 3 Zrotation Xrotation Yrotation
                          JOINT RightHandPinky3
                          {
                            OFFSET -1.74189 0 0
                            CHANNELS 3 Zrotation Xrotation Yrotation
                            End Site
                            {
                              OFFSET -1.645 0 0
                            }
                          }
                        }
                      }
                    }
                  }
                }
              }
            }
            JOINT LeftShoulder
            {
              OFFSET 3.22572 6.89245 -0.0537601
              CHANNELS 3 Zrotation Xrotation Yrotation
              JOINT LeftArm
              {
                OFFSET 12.8183 -0.0506887 -0.111983
                CHANNELS 3 Zrotation Xrotation Yrotation
                JOINT LeftForeArm
                {
                  OFFSET 26.4786 -0.0502099 0.0159937
                  CHANNELS 3 Zrotation Xrotation Yrotation
                  JOINT LeftHand
                  {
                    OFFSET 25.8931 -0.161185 0.0946899
                    CHANNELS 3 Zrotation Xrotation Yrotation
                    JOINT LeftHandThumb1
                    {
                      OFFSET 2.48905 0.190105 3.12053
                      CHANNELS 3 Zrotation Xrotation Yrotation
                      JOINT LeftHandThumb2
                      {
                        OFFSET 3.68274 0 0
                        CHANNELS 3 Zrotation Xrotation Yrotation
                        JOINT LeftHandThumb3
                        {
                          OFFSET 2.55832 0 0
                          CHANNELS 3 Zrotation Xrotation Yrotation
                          End Site
                          {
                            OFFSET 2.194 0 0
                          }
                        }
                      }
                    }
                    JOINT LeftInHandIndex
                    {
                      OFFSET 3.22368 0.508421 1.97842
                      CHANNELS 3 Zrotation Xrotation Yrotation
                      JOINT LeftHandIndex1
                      {
                        OFFSET 5.21684 -0.091368 0.999158
                        CHANNELS 3 Zrotation Xrotation Yrotation
                        JOINT LeftHandIndex2
                        {
                          OFFSET 3.61937 0 0
                          CHANNELS 3 Zrotation Xrotation Yrotation
                          JOINT LeftHandIndex3
                          {
                            OFFSET 2.0521 0 0
                            CHANNELS 3 Zrotation Xrotation Yrotation
                            End Site
                            {
                              OFFSET 1.805 0 0
                            }
                          }
                        }
                      }
                    }
                    JOINT LeftInHandMiddle
                    {
                      OFFSET 3.38211 0.517263 0.756737
                      CHANNELS 3 Zrotation Xrotation Yrotation
                      JOINT LeftHandMiddle1
                      {
                        OFFSET 5.17411 -0.084 0.313895
                        CHANNELS 3 Zrotation Xrotation Yrotation
                        JOINT LeftHandMiddle2
                        {
                          OFFSET 3.94947 0 0
                          CHANNELS 3 Zrotation Xrotation Yrotation
                          JOINT LeftHandMiddle3
                          {
                            OFFSET 2.47579 0 0
                            CHANNELS 3 Zrotation Xrotation Yrotation
                            End Site
                            {
                              OFFSET 1.975 0 0
                            }
                          }
                        }
                      }
                    }
                    JOINT LeftInHandRing
                    {
                      OFFSET 3.36516 0.537895 -0.128947
                      CHANNELS 3 Zrotation Xrotation Yrotation
                      JOINT LeftHandRing1
                      {
                        OFFSET 4.63474 -0.022105 -0.478947
                        CHANNELS 3 Zrotation Xrotation Yrotation
                        JOINT LeftHandRing2
                        {
                          OFFSET 3.44238 0 0
                          CHANNELS 3 Zrotation Xrotation Yrotation
                          JOINT LeftHandRing3
                          {
                            OFFSET 2.3881 0 0
                            CHANNELS 3 Zrotation Xrotation Yrotation
                            End Site
                            {
                              OFFSET 1.857 0 0
                            }
                          }
                        }
                      }
                    }
                    JOINT LeftInHandPinky
                    {
                      OFFSET 3.16105 0.469368 -1.20179
                      CHANNELS 3 Zrotation Xrotation Yrotation
                      JOINT LeftHandPinky1
                      {
                        OFFSET 4.14105 -0.022105 -1.09053
                        CHANNELS 3 Zrotation Xrotation Yrotation
                        JOINT LeftHandPinky2
                        {
                          OFFSET 2.75653 0 0
                          CHANNELS 3 Zrotation Xrotation Yrotation
                          JOINT LeftHandPinky3
                          {
                            OFFSET 1.74189 0 0
                            CHANNELS 3 Zrotation Xrotation Yrotation
                            End Site
                            {
                              OFFSET 1.645 0 0
                            }
                          }
                        }
                      }
                    }
                  }
                }
              }
            }
          }
        }
      }
    }
  }
}
MOTION
Frames: 2
Frame Time: 0.00833333
1.500000000000000000e+02 0.000000000000000000e+00 0.000000000000000000e+00 0.000000000000000000e+00 0.000000000000000000e+00 -0.000000000000000000e+00 -8.386740067489965172e-03 -8.226956171824667888e-03 -6.129480714175005243e-03 4.994252595724309185e-02 3.523820262002520798e-02 3.640697189130667061e-02 -3.024958830292217432e-02 -8.848253557208635156e-02 4.881832230991930976e-02 -2.532077827307396833e-02 4.242064235803741368e-02 -5.144746629027553003e-02 1.719882471623498249e-02 -4.094212250008023683e-03 -4.305303850548261591e-02 -1.403768467165844407e-02 7.591577612185877733e-02 7.401571704378660799e-02 -4.041646365887094361e-03 -1.828795030572275340e-02 -3.466075327101980630e-02 7.342421867626731762e-03 -3.078977508444409247e-02 -5.886545025060572339e-02 -3.550887478433693671e-03 5.360048667825130508e-02 -6.576250525157797955e-03 2.694813415481681941e-03 -8.884938808807352206e-02 -4.397871463861845187e-02 1.480093079214168678e-03 -2.866828377055185336e-03 1.721915457585948160e-04 2.648876826288085184e-02 -6.167193777421919182e-02 3.220043201976071495e-02 9.001292801943129238e-03 -1.393074306502493226e-02 3.901397908286780014e-02 -2.129662100063396402e-01 5.542514819777091123e-02 -2.240381596642541939e-01 2.515420415622077743e-01 1.127045194884452872e-01 3.512219111864683246e-02 -7.525264219974691748e+00 1.251231534669397516e-01 -7.242107892621735488e+00 -2.662557831031740485e-01 3.405055508911658535e-01 -6.009622936993084391e-02 0.000000000000000000e+00 0.000000000000000000e+00 0.000000000000000000e+00 9.452868867849145021e-15 -1.559195913741281746e-14 0.000000000000000000e+00 1.929125016546014929e-14 -1.158178535827138019e-14 0.000000000000000000e+00 -4.944204149592061287e-15 9.813735043837274344e-15 -5.383108605541631381e-15 0.000000000000000000e+00 0.000000000000000000e+00 0.000000000000000000e+00 0.000000000000000000e+00 5.820128938383386128e-15 1.975248857760292730e-14 0.000000000000000000e+00 1.577685113072939516e-15 -1.775826382406309521e-15 -4.944204149592061287e-15 9.813735043837274344e-15 -5.383108605541631381e-15 0.000000000000000000e+00 2.630819814743856129e-15 -5.095231285882928950e-15 0.000000000000000000e+00 1.302672787259359771e-15 7.328132483509928295e-15 0.000000000000000000e+00 -1.986007931024472979e-16 1.247497245054342932e-14 -4.944204149592061287e-15 9.813735043837274344e-15 -5.383108605541631381e-15 0.000000000000000000e+00 0.000000000000000000e+00 0.000000000000000000e+00 0.000000000000000000e+00 8.102661287035421641e-15 2.733552983874732705e-14 0.000000000000000000e+00 1.537214166031325809e-15 1.209765053194742539e-15 -4.944204149592061287e-15 9.813735043837274344e-15 -5.383108605541631381e-15 0.000000000000000000e+00 0.000000000000000000e+00 0.000000000000000000e+00 0.000000000000000000e+00 4.107022782610555818e-15 3.202558141640907417e-14 0.000000000000000000e+00 4.392499471685385921e-15 1.919935244135592511e-14 -7.274866987327351098e-02 -6.106843400288562707e-02 6.277671644522660188e-02 8.036877458835536836e-03 5.447677471106773112e-02 7.496100893209332872e-02 -3.038317549918475025e-01 4.906150962611078858e-01 8.665990358508356139e-02 -8.106946197748228222e-01 6.802504454672189671e-02 -1.098881127322837603e+00 0.000000000000000000e+00 0.000000000000000000e+00 0.000000000000000000e+00 -7.689384606363738047e-15 5.845292267780589103e-15 0.000000000000000000e+00 -4.027703155809079288e-16 1.007594392525073498e-14 0.000000000000000000e+00 3.488933815581762217e-15 4.321968021273019415e-15 1.421729502863697439e-15 0.000000000000000000e+00 0.000000000000000000e+00 0.000000000000000000e+00 0.000000000000000000e+00 -5.476872246211295703e-15 4.933416735734549608e-15 0.000000000000000000e+00 3.659490015801069245e-16 -6.808322202128630475e-15 3.488933815581762217e-15 4.321968021273019415e-15 1.421729502863697439e-15 0.000000000000000000e+00 -6.184616522357080234e-16 5.493111862377479542e-15 0.000000000000000000e+00 -4.975282083819779163e-15 9.591644745396908786e-15 0.000000000000000000e+00 -2.593432397857617056e-15 3.370906437608275373e-14 3.488933815581762217e-15 4.321968021273019415e-15 1.421729502863697439e-15 0.000000000000000000e+00 0.000000000000000000e+00 0.000000000000000000e+00 0.000000000000000000e+00 -1.092315838185430520e-15 1.950749202875139630e-14 0.000000000000000000e+00 -5.217665787570131912e-15 1.160619384710047337e-14 3.488933815581762217e-15 4.321968021273019415e-15 1.421729502863697439e-15 0.000000000000000000e+00 0.000000000000000000e+00 0.000000000000000000e+00 0.000000000000000000e+00 1.610198763995624110e-15 1.712766130596365916e-14 0.000000000000000000e+00 -4.661214825819617590e-15 1.325936569081269942e-14
1.500000000000000000e+02 0.000000000000000000e+00 0.000000000000000000e+00 0.000000000000000000e+00 0.000000000000000000e+00 -0.000000000000000000e+00 -9.696969175329946469e-03 -1.264087433246442738e-02 4.947867572212982616e-03 4.020084377405513248e-02 3.539529901276424612e-02 2.170755677563152714e-02 -3.345116560901571084e-02 -8.480297921894491830e-02 5.235462911322601165e-02 -2.504195182366330055e-02 4.244297455616707210e-02 -5.550123211823269898e-02 4.394218079975334597e-03 -9.299132306968363806e-03 -5.826993139191921633e-02 -1.442224267562897295e-02 7.747307208245642063e-02 7.296476013827640772e-02 -2.994712236354630380e-03 -1.584189302192040572e-02 -3.082543886141177886e-02 1.128889516882270599e-02 -3.617879616380340058e-02 -6.651441561458029672e-02 -3.770542624345590409e-03 6.799760663194227839e-02 -5.258387745178459520e-03 5.005993736249688200e-03 -1.097221764798005372e-01 -5.205337827203435769e-02 1.545556146789605874e-03 -2.841807365488942076e-03 1.737448097586273207e-04 2.998805332507432225e-02 -6.001327324193854451e-02 3.284062791942963383e-02 9.214652961119054395e-03 -1.485738142713836918e-02 3.923209726769910644e-02 -2.400733415801125092e-01 5.990835821705964293e-02 -2.626873294211014009e-01 2.842040040383176924e-01 1.171323664824246436e-01 3.066402790927109587e-02 -8.550151662233602678e+00 1.298842230245094431e-01 -8.212064193108355781e+00 -2.843526978883605949e-01 4.814447913598133288e-01 -1.024804578015984791e-01 0.000000000000000000e+00 0.000000000000000000e+00 0.000000000000000000e+00 5.809110098793173986e-15 -1.377603759141477406e-14 0.000000000000000000e+00 5.184014905839539208e-15 -4.303237845050544371e-15 0.000000000000000000e+00 -2.571538255891997655e-15 6.268594274653655732e-15 -2.772408663075126009e-15 0.000000000000000000e+00 0.000000000000000000e+00 0.000000000000000000e+00 0.000000000000000000e+00 7.051457698836789120e-15 1.747974625666282174e-14 0.000000000000000000e+00 1.252826015981638803e-15 -3.820072503383257294e-15 -2.571538255891997655e-15 6.268594274653655732e-15 -2.772408663075126009e-15 0.000000000000000000e+00 1.012964880939779014e-14 3.920030661863139376e-15 0.000000000000000000e+00 2.804566267154415041e-15 -3.352904309735185039e-15 0.000000000000000000e+00 7.696044925716743259e-16 1.220432074653041396e-14 -2.571538255891997655e-15 6.268594274653655732e-15 -2.772408663075126009e-15 0.000000000000000000e+00 0.000000000000000000e+00 0.000000000000000000e+00 0.000000000000000000e+00 3.340995666255900134e-15 7.493709676087222398e-15 0.000000000000000000e+00 -6.874058428399267913e-16 -1.823439623283317553e-14 -2.571538255891997655e-15 6.268594274653655732e-15 -2.772408663075126009e-15 0.000000000000000000e+00 0.000000000000000000e+00 0.000000000000000000e+00 0.000000000000000000e+00 2.597085238390498368e-15 1.639293554345406702e-14 0.000000000000000000e+00 4.286677107113758515e-15 1.166734119015529019e-14 -7.160102419616103109e-02 -5.725067296909819997e-02 4.127672613139502650e-02 -7.148371590827602706e-02 3.534372832442703172e-02 1.873141105480823632e-01 -2.817287644038126704e-01 4.811651625704755908e-01 3.948675940469577317e-02 -5.938726915374917814e-01 3.565093266796149490e-02 -8.654091631066787027e-01 0.000000000000000000e+00 0.000000000000000000e+00 0.000000000000000000e+00 5.628411223514425880e-15 1.194814444718420805e-15 0.000000000000000000e+00 3.301246538452667855e-15 4.501868689066036180e-15 0.000000000000000000e+00 5.170238598887489612e-15 3.289705014237711751e-16 -1.112105815650277376e-16 0.000000000000000000e+00 0.000000000000000000e+00 0.000000000000000000e+00 0.000000000000000000e+00 -7.281346119796643281e-15 1.110468098189271973e-14 0.000000000000000000e+00 6.237064371856709594e-16 -8.755143330626129454e-16 5.170238598887489612e-15 3.289705014237711751e-16 -1.112105815650277376e-16 0.000000000000000000e+00 2.725765019349186030e-15 1.278539132308518750e-14 0.000000000000000000e+00 -1.883236876466708157e-15 1.352568088926621574e-14 0.000000000000000000e+00 -4.622939945246729803e-15 3.174051833739423189e-14 5.170238598887489612e-15 3.289705014237711751e-16 -1.112105815650277376e-16 0.000000000000000000e+00 0.000000000000000000e+00 0.000000000000000000e+00 0.000000000000000000e+00 -3.496210163628320412e-15 1.649546928342468257e-14 0.000000000000000000e+00 -4.843785961530017521e-15 1.280688611832136556e-14 5.170238598887489612e-15 3.289705014237711751e-16 -1.112105815650277376e-16 0.000000000000000000e+00 0.000000000000000000e+00 0.000000000000000000e+00 0.000000000000000000e+00 -1.187607904316476645e-15 1.683338222967564662e-14 0.000000000000000000e+00 -3.105720576509034707e-15 1.655854901026989635e-14
